<svg xmlns="http://www.w3.org/2000/svg" xmlns:xlink="http://www.w3.org/1999/xlink" xmlns:fi="http://pattern.flaticon.com/" x="0" y="0" width="1024" height="1024" viewBox="0 0 1024 1024"><rect x="0px" y="0px" width="100%" height="100%" opacity="1" fill="#ffffff"/><defs><g transform="matrix(0.12931033968925476 0 0 0.12931033968925476 301 282)" id="L1_0"><g><path d="M152,0h32v60.856h-32V0z" fill="#ee8eb4"/><path d="M280,0h32v60.856h-32V0z" fill="#ee8eb4"/></g><path d="M384,400l-88-208v-32l5.776-34.632c19.384-8.603,28.124-31.292,19.521-50.676  c-0.258-0.581-0.53-1.156-0.817-1.724L312,56H152l-8.48,16.968c-9.555,18.933-1.953,42.028,16.98,51.583  c0.568,0.287,1.143,0.559,1.724,0.817L168,160v32L80,400c23.265,9.771,47.42,17.273,72.128,22.4L144,452.216  c57.615,15.712,118.385,15.712,176,0l-8.128-29.816C336.58,417.273,360.735,409.771,384,400z" fill="#dd527c"/><g><path d="M144,452.216C172.679,460.037,202.273,464,232,464l-40-187.784L144,452.216z" fill="#9b1e5a"/><path d="M272,276.216l48,176l-8.128-29.816c11.968-2.496,23.832-5.552,35.592-9.168L272,276.216z" fill="#9b1e5a"/><path d="M256,216h16v16h-16V216z" fill="#9b1e5a"/><path d="M272,232h16v16h-16V232z" fill="#9b1e5a"/></g><path d="M136,152c0.01-13.255-10.728-24.008-23.982-24.018S88.01,138.71,88,151.965  c-0.006,8.062,4.036,15.588,10.76,20.035c-11.055,7.312-14.09,22.202-6.778,33.258c7.312,11.055,22.202,14.09,33.258,6.778  c6.724-4.447,10.766-11.973,10.76-20.035V152z" fill="#ee8eb4"/><path d="M176,128c-1.365,0-2.73-0.07-4.088-0.208c-3.327-0.337-6.589-1.145-9.688-2.4L168,160v32L80,400  c12.532,5.252,25.331,9.843,38.344,13.752L197.904,192v-32l-5.552-35.568C187.216,126.768,181.642,127.984,176,128L176,128z" fill="#9b1e5a"/><path d="M168,160h128v32H168V160z" fill="#ee8eb4"/></g><g transform="matrix(0.12931033968925476 0 0 0.12931033968925476 54 263)" id="L1_1"><path d="M464,239.951l-80-168l-56-32l-24-32c-47.422-10.535-96.578-10.535-144,0l-24,32l-56,32l-80,168  l109.456,109.456L104,463.951h73.376c30.168,0,54.624-24.456,54.624-54.624c0,30.168,24.456,54.624,54.624,54.624H360  l-5.456-114.544L464,239.951z M104.752,158.287l5.472,103.888L74,225.951L104.752,158.287z M390,225.951l-36.224,36.224  l5.472-103.888L390,225.951z" fill="#394d5d"/><path d="M288,175.951h69.896v16H288V175.951z" fill="#7d8f9f"/><path d="M120,103.951l112,199.12l112-199.12l-16,3.2v-67.2l-24-32c-47.422-10.535-96.578-10.535-144,0l-24,32  v67.2L120,103.951z" fill="#0f2537"/><g><path d="M136,343.951h56v16h-56V343.951z" fill="#7d8f9f"/><path d="M272,343.951h56v16h-56V343.951z" fill="#7d8f9f"/><path d="M144,407.951h16v16h-16V407.951z" fill="#7d8f9f"/><path d="M128,423.951h16v16h-16V423.951z" fill="#7d8f9f"/></g><path d="M278.4,86.351l25.6,25.6l40-8l-112,199.12l-112-199.12l40,8l25.6-25.6H278.4z" fill="#efefef"/><path d="M200,39.951l-24,8l56,224l56-224l-24-8H200z" fill="#dd1c4b"/></g><g transform="matrix(0.12709926068782806 0 0 0.12709926068782806 22 23)" id="L1_2"><path d="M8.072,228.032h464v240h-464V228.032z" fill="#9a615b"/><path d="M16,228.032c0-114.895,93.141-208.036,208.036-208.036s208.036,93.141,208.036,208.036v64h16v-64  C447.922,104.175,347.394,3.89,223.537,4.04c-2.102,0.003-4.204,0.035-6.305,0.096C95.392,7.752,0,110.92,0,232.832v67.144  c0,8.867,7.189,16.056,16.056,16.056c0.005,0,0.011,0,0.016,0L16,228.032z" fill="#bb9373"/><path d="M400.072,284.032h72v48h-72V284.032z" fill="#99745b"/><path d="M8.072,228.032h400v240h-400V228.032z" fill="#67342c"/><path d="M192.072,380.032h32l0,0v40c0,8.837-7.163,16-16,16s-16-7.163-16-16V380.032L192.072,380.032z" fill="#ffd884"/><g><path d="M368.072,364.032h16v16h-16V364.032z" fill="#bb9373"/><path d="M368.072,396.032h16v16h-16V396.032z" fill="#bb9373"/><path d="M368.072,428.032h16v16h-16V428.032z" fill="#bb9373"/><path d="M368.072,324h16v24.032h-16V324z" fill="#bb9373"/><path d="M32.072,364.032h16v16h-16V364.032z" fill="#bb9373"/><path d="M32.072,396.032h16v16h-16V396.032z" fill="#bb9373"/><path d="M32.072,428.032h16v16h-16V428.032z" fill="#bb9373"/><path d="M32.072,324h16v24.032h-16V324z" fill="#bb9373"/></g><path d="M208.072,388.032c21.115,0,42.009-4.289,61.416-12.608l138.584-59.104v-88.288h-400v87.896  l138.584,59.496C166.063,383.743,186.957,388.032,208.072,388.032z" fill="#9a615b"/><path d="M160.072,276.032h96v64h-96V276.032z" fill="#ffd884"/></g><g transform="matrix(0.12931033968925476 0 0 0.12931033968925476 247 82)" id="L1_3"><path d="M142.208,90.208L135.2,83.2c-14.852-14.853-34.995-23.198-56-23.2C35.459,60,0,95.459,0,139.2  c0.002,21.005,8.347,41.148,23.2,56L32,204v200h32V236l140.136,140.136C221.978,393.977,246.176,404,271.408,404H442.4  c11.929,0,21.6-9.671,21.6-21.6l0,0c0.001-6.569-2.987-12.781-8.12-16.88L265.088,213.088L142.208,90.208z" fill="#ffbf41"/><path d="M56,126.912c-0.002,13.503,5.363,26.453,14.912,36l122.176,122.176  c9.547,9.549,22.497,14.914,36,14.912C257.206,300,280,277.206,280,249.088c0.002-13.503-5.363-26.453-14.912-36l-122.88-122.88  c-9.096-9.096-21.432-14.207-34.296-14.208h-0.992C78.803,76.004,56.009,98.795,56,126.912L56,126.912z" fill="#fcd797"/><g><path d="M304,380h-22.064c-23.866,0.068-46.766-9.419-63.592-26.344l11.312-11.312   c13.834,13.912,32.66,21.711,52.28,21.656H304V380z" fill="#f6f6e7"/><path d="M320,364h16v16h-16V364z" fill="#f6f6e7"/></g><path d="M280,249.088c0.002-13.503-5.363-26.453-14.912-36l-122.88-122.88  c-9.096-9.096-21.432-14.207-34.296-14.208h-0.992C78.926,75.872,56.129,98.461,56,126.455c-0.019,4.176,0.478,8.339,1.48,12.393  c13.555-11.923,34.035-11.286,46.824,1.456l151.848,151.848C270.989,282.864,280,266.592,280,249.088L280,249.088z" fill="#c9bc79"/></g><g transform="matrix(0.12931033968925476 0 0 0.12931033968925476 241 169)" id="L1_4"><path d="M40,0h240v96H40V0z" fill="#f6f6e7"/><path d="M360.104,304H264V96H56v208h-0.12c-13.187,0.004-23.876,10.693-23.88,23.88V416h400v-40.104  C432,336.189,399.811,304,360.104,304z" fill="#bb9373"/><path d="M32,416h400v48H32V416z" fill="#efefef"/><g><path d="M56,440h16v24H56V440z" fill="#394d5d"/><path d="M88,440h16v24H88V440z" fill="#394d5d"/><path d="M120,440h16v24h-16V440z" fill="#394d5d"/><path d="M152,440h16v24h-16V440z" fill="#394d5d"/><path d="M184,440h16v24h-16V440z" fill="#394d5d"/><path d="M216,440h16v24h-16V440z" fill="#394d5d"/><path d="M248,440h16v24h-16V440z" fill="#394d5d"/><path d="M280,440h16v24h-16V440z" fill="#394d5d"/><path d="M312,440h16v24h-16V440z" fill="#394d5d"/><path d="M344,440h16v24h-16V440z" fill="#394d5d"/><path d="M376,440h16v24h-16V440z" fill="#394d5d"/></g><g><circle cx="208" cy="152" r="16" fill="#9a615b"/><circle cx="208" cy="216" r="16" fill="#9a615b"/><circle cx="208" cy="280" r="16" fill="#9a615b"/></g><g><path d="M216,144h48v16h-48V144z" fill="#ffd884"/><path d="M216,208h48v16h-48V208z" fill="#ffd884"/><path d="M216,272h48v16h-48V272z" fill="#ffd884"/></g><path d="M360.104,304H312v23.032C312,349.658,293.658,368,271.032,368H32v48h400v-40.104  C432,336.189,399.811,304,360.104,304z" fill="#5a6473"/><g><path d="M64,24h16v16H64V24z" fill="#bb9373"/><path d="M80,40h16v16H80V40z" fill="#bb9373"/><path d="M64,56h16v16H64V56z" fill="#bb9373"/></g><g><path d="M343.895,360.015l0.109-56l16,0.031l-0.109,56L343.895,360.015z" fill="#efefef"/><path d="M344,376h16v16h-16V376z" fill="#efefef"/></g></g><g transform="matrix(0.12931033968925476 0 0 0.12931033968925476 -3 160)" id="L1_5"><path d="M360,64c0.009-16.327,2.402-32.565,7.104-48.2L296,0c0,35.346-28.654,64-64,64s-64-28.654-64-64  L96.896,15.8c4.702,15.635,7.095,31.873,7.104,48.2c0.035,39.829-14.15,78.363-40,108.664V416  c31.28,26.067,69.652,42.164,110.168,46.216L192,464l40-20l40,20l17.832-1.784C330.348,458.164,368.72,442.067,400,416V172.664  C374.15,142.363,359.965,103.829,360,64z" fill="#394d5d"/><path d="M360,64c0.009-16.327,2.402-32.565,7.104-48.2L296,0v48.576  c0.001,40.61-16.132,79.557-44.848,108.272L232,176l-19.152-19.152C184.132,128.133,167.999,89.186,168,48.576V0L96.896,15.8  c4.702,15.635,7.095,31.873,7.104,48.2c0.035,39.829-14.15,78.363-40,108.664V416c31.28,26.067,69.652,42.164,110.168,46.216  L192,464l40-20l40,20l17.832-1.784C330.348,458.164,368.72,442.067,400,416V172.664C374.15,142.363,359.965,103.829,360,64z" fill="#5a6473"/><g><path d="M212,264c-6.627,0-12-5.373-12-12c0-6.627,5.373-12,12-12s12,5.373,12,12   C224,258.627,218.627,264,212,264z" fill="#b99471"/><path d="M268,264c-6.627,0-12-5.373-12-12c0-6.627,5.373-12,12-12s12,5.373,12,12   C280,258.627,274.627,264,268,264z" fill="#b99471"/><path d="M212,320c-6.627,0-12-5.373-12-12s5.373-12,12-12s12,5.373,12,12S218.627,320,212,320z" fill="#b99471"/><path d="M268,320c-6.627,0-12-5.373-12-12s5.373-12,12-12s12,5.373,12,12S274.627,320,268,320z" fill="#b99471"/><path d="M212,376c-6.627,0-12-5.373-12-12s5.373-12,12-12s12,5.373,12,12S218.627,376,212,376z" fill="#b99471"/><path d="M268,376c-6.627,0-12-5.373-12-12s5.373-12,12-12s12,5.373,12,12S274.627,376,268,376z" fill="#b99471"/></g><g><path d="M400,312l-80,24v32l80-24V312z" fill="#efefef"/><path d="M64,312l80,24v32l-80-24V312z" fill="#efefef"/></g><g><path d="M360,208h16v16h-16V208z" fill="#d3d0c7"/><path d="M344,224h16v16h-16V224z" fill="#d3d0c7"/><path d="M360,240h16v16h-16V240z" fill="#d3d0c7"/><path d="M344,256h16v16h-16V256z" fill="#d3d0c7"/></g></g><g transform="matrix(0.12931033968925476 0 0 0.12931033968925476 140.0000004577637 206)" id="L1_6"><path d="M358.244,104l-84.488,92.168v-49.536c-0.001-7.082-0.415-14.158-1.24-21.192L257.756,0h-176  l-14.76,125.44c-0.825,7.034-1.239,14.11-1.24,21.192v55.032c-0.001,14.833,1.818,29.61,5.416,44l4.296,17.2  c4.14,16.551,4.553,33.814,1.208,50.544c-4.185,20.918-3.868,42.486,0.928,63.272L97.756,464h40l8.52-63.928  c4.967-37.204,4.792-74.915-0.52-112.072v-11.352c0-8.378,1.351-16.7,4-24.648c2.648-7.948,3.999-16.271,4-24.648V128l-2.504-40  h0.736c8.685,9.813,23.681,10.727,33.494,2.042c0.721-0.638,1.403-1.32,2.042-2.042h0.728l-2.496,40v99.352  c0.001,8.378,1.352,16.7,4,24.648c2.649,7.948,4,16.27,4,24.648V288h67.512l136.976-144L358.244,104z" fill="#5a6473"/><path d="M257.756,0h-64h-48h-64l-3.768,32h183.536L257.756,0z" fill="#394d5d"/><g><path d="M137.756,32h16v24h-16V32z" fill="#efefef"/><path d="M225.756,56h16v16h-16V56z" fill="#efefef"/><path d="M225.756,88h16v16h-16V88z" fill="#efefef"/><path d="M225.756,120h16v16h-16V120z" fill="#efefef"/><path d="M225.756,152h16v16h-16V152z" fill="#efefef"/><path d="M225.756,184h16v16h-16V184z" fill="#efefef"/><path d="M225.756,216h16v16h-16V216z" fill="#efefef"/><path d="M225.756,248h16v16h-16V248z" fill="#efefef"/></g></g><g transform="matrix(0.12924878299236298 0 0 0.12924878299236298 132 111)" id="L1_7"><path d="M460.355,292.426l-27.672-99.872l0.12-8.752h-16.752c-26.51,0-48,21.49-48,48h-8  c-26.51,0-48,21.49-48,48l0,0h-8c-2.115,0.016-4.226,0.171-6.32,0.464l-0.68,0.104c-1.888,0.274-3.758,0.661-5.6,1.16l-0.448,0.112  c-3.927,1.104-7.692,2.718-11.2,4.8l-0.272,0.16c-5.171,3.093-9.663,7.199-13.208,12.072v0.048  c-5.902,8.039-8.607,17.983-7.592,27.904v15.88c-17.109,6.888-36.219,6.888-53.328,0c-0.312-0.696-0.904-15.688-0.904-15.688  c1.036-9.944-1.649-19.919-7.536-28l-0.064-0.088c-3.53-4.883-8.016-8.998-13.184-12.096l-0.28-0.176  c-3.508-2.081-7.273-3.695-11.2-4.8l-0.448-0.112c-1.842-0.498-3.712-0.886-5.6-1.16l-0.672-0.104  c-2.115-0.301-4.248-0.461-6.384-0.48h-8c0-26.51-21.49-48-48-48h-8c0-26.51-21.49-48-48-48H31.395v8.72L3.723,292.425  c-15.169,55.33,17.387,112.48,72.717,127.649c22.307,6.116,46.016,4.612,67.371-4.273v0.048h0.08  c56.98-20.676,119.412-20.676,176.392,0l-0.104-0.048c52.954,22.087,113.787-2.936,135.874-55.89  C464.973,338.526,466.488,314.771,460.355,292.426L460.355,292.426z" fill="#e292c1"/><g><path d="M440.803,231.801h-16l-0.752-192h16L440.803,231.801z" fill="#602d81"/><path d="M24.051,39.802h16v192h-16V39.802z" fill="#602d81"/></g><g><path d="M432.683,192.521l0.12-8.72h-16.752c-26.51,0-48,21.49-48,48h-8c-26.51,0-48,21.49-48,48h-8   c-24.26-0.831-44.6,18.162-45.43,42.422c-0.05,1.47-0.027,2.942,0.07,4.41v15.96C330.467,311.215,391.106,258.912,432.683,192.521   L432.683,192.521z" fill="#f6f6e7"/><path d="M205.379,342.594c-0.304-0.136-0.92-15.792-0.92-15.792c1.697-24.215-16.557-45.22-40.771-46.917   c-1.516-0.106-3.037-0.134-4.557-0.083h-8c0-26.51-21.49-48-48-48h-8c0-26.51-21.49-48-48-48H31.395v8.72   C72.971,258.91,133.607,311.213,205.379,342.594z" fill="#f6f6e7"/></g><g><path d="M31.395,192.521L3.723,292.394c-14.783,55.503,18.226,112.48,73.729,127.264   c55.021,14.655,111.597-17.659,126.927-72.496c0.416-1.52,0.656-3.04,1-4.568C133.607,311.213,72.971,258.91,31.395,192.521   L31.395,192.521z" fill="#b557a1"/><path d="M460.355,292.394l-27.672-99.872c-41.577,66.391-102.216,118.694-173.992,150.072   c0.344,1.528,0.592,3.048,1.008,4.568c14.783,55.503,71.761,88.512,127.264,73.729s88.512-71.761,73.729-127.264   C460.582,293.215,460.47,292.804,460.355,292.394L460.355,292.394z" fill="#b557a1"/></g><g><path d="M384.051,343.802h-16c0.066,23.503-9.274,46.056-25.936,62.632l-12.664,12.656   c6.089,1.89,12.34,3.213,18.672,3.952l5.304-5.296C373.102,398.178,384.13,371.551,384.051,343.802L384.051,343.802z" fill="#e292c1"/><path d="M96.051,343.802h-16c-0.079,27.749,10.949,54.376,30.624,73.944l5.296,5.296   c6.334-0.754,12.585-2.093,18.672-4l-12.656-12.648C105.335,389.827,95.996,367.291,96.051,343.802L96.051,343.802z" fill="#e292c1"/><path d="M368.051,311.802h16v16h-16V311.802z" fill="#e292c1"/><path d="M384.051,295.802v-40h-0.856c-4.928,5.12-9.952,10.144-15.144,14.984v25.016H384.051z" fill="#e292c1"/><path d="M80.051,311.802h16v16h-16V311.802z" fill="#e292c1"/><path d="M96.051,295.802V270.81c-5.496-5.12-10.8-10.4-16-15.872v40.864H96.051z" fill="#e292c1"/></g></g><g transform="matrix(0.12931033968925476 0 0 0.12931033968925476 126 20.99999919496736)" id="L1_8"><path d="M456.488,82.277c-0.31-6.507-3.522-12.532-8.752-16.416c-8.689-4.339-19.251-0.82-23.6,7.864  l-0.272,0.528c-4.346,8.687-14.909,12.21-23.6,7.872l-3.136-1.6c-7.603-3.797-16.832-1.619-21.936,5.176l-6.4,8.512  c-5.104,6.795-14.333,8.973-21.936,5.176l-7.528-3.76c-6.775-3.386-14.956-2.059-20.312,3.296l-4.8,4.8  c-5.931,5.929-15.221,6.849-22.2,2.2c-6.979-4.649-16.269-3.729-22.2,2.2l-3.6,3.6c-5.931,5.928-15.221,6.849-22.2,2.2l-2.24-1.496  c-5.911-3.939-13.609-3.939-19.52,0l-2.24,1.496c-6.979,4.649-16.269,3.729-22.2-2.2l-3.6-3.6c-5.931-5.928-15.221-6.849-22.2-2.2  s-16.269,3.729-22.2-2.2l-4.8-4.8c-5.356-5.355-13.537-6.682-20.312-3.296l-7.528,3.76c-7.603,3.797-16.832,1.619-21.936-5.176  l-6.4-8.512c-5.104-6.795-14.333-8.973-21.936-5.176l-3.136,1.6c-8.691,4.338-19.254,0.815-23.6-7.872l-0.272-0.528  c-4.349-8.684-14.911-12.203-23.6-7.864c-5.289,3.927-8.789,9.806-9.72,16.328L0,239.997l0.312,0.256L190.08,398.397l1.92,1.6h80  l1.92-1.6l189.768-158.144l0.312-0.256L456.488,82.277z" fill="#dd527c"/><path d="M416,231.997c16.249,0.033,32.374,2.824,47.688,8.256l0.312-0.256l-7.512-157.72  c-0.31-6.507-3.522-12.532-8.752-16.416c-8.689-4.339-19.251-0.82-23.6,7.864l-0.272,0.528c-4.346,8.687-14.909,12.21-23.6,7.872  l-3.136-1.6c-7.603-3.797-16.832-1.619-21.936,5.176l-6.4,8.512c-5.104,6.795-14.333,8.973-21.936,5.176l-7.528-3.76  c-6.775-3.386-14.956-2.059-20.312,3.296l-4.8,4.8c-5.931,5.929-15.221,6.849-22.2,2.2c-6.979-4.649-16.269-3.729-22.2,2.2l-3.6,3.6  c-5.931,5.928-15.221,6.849-22.2,2.2l-2.24-1.496c-5.911-3.939-13.609-3.939-19.52,0l-2.24,1.496  c-6.979,4.649-16.269,3.729-22.2-2.2l-3.6-3.6c-5.931-5.928-15.221-6.849-22.2-2.2s-16.269,3.729-22.2-2.2l-4.8-4.8  c-5.356-5.355-13.537-6.682-20.312-3.296l-7.528,3.76c-7.603,3.797-16.832,1.619-21.936-5.176l-6.4-8.512  c-5.104-6.795-14.333-8.973-21.936-5.176l-3.136,1.6c-8.691,4.338-19.254,0.815-23.6-7.872l-0.272-0.528  c-4.349-8.684-14.911-12.203-23.6-7.864c-5.289,3.927-8.789,9.806-9.72,16.328L0,239.997l0.312,0.256  c74.414-26.782,156.45,11.831,183.233,86.245c8.283,23.015,10.533,47.768,6.535,71.899l1.92,1.6h80l1.92-1.6  c-12.912-77.927,39.793-151.568,117.721-164.48C399.691,232.584,407.84,231.941,416,231.997L416,231.997z" fill="#ee8eb4"/><path d="M191.064,359.997h81.872c0.62-5.38,1.539-10.722,2.752-16h-87.376  C189.525,349.275,190.444,354.617,191.064,359.997L191.064,359.997z" fill="#9b1e5a"/><path d="M39.864,132.797l0.272,0.528c4.349,8.684,14.911,12.203,23.6,7.864l3.136-1.6  c7.608-3.785,16.834-1.594,21.928,5.208l6.4,8.504c5.101,6.798,14.331,8.979,21.936,5.184l7.528-3.768  c6.775-3.386,14.956-2.059,20.312,3.296l4.8,4.84c5.931,5.928,15.221,6.849,22.2,2.2c6.977-4.651,16.267-3.734,22.2,2.192l3.6,3.608  c5.931,5.928,15.221,6.849,22.2,2.2l2.24-1.496c5.911-3.939,13.609-3.939,19.52,0l2.24,1.496c6.979,4.649,16.269,3.729,22.2-2.2  l3.6-3.608c5.933-5.926,15.223-6.843,22.2-2.192c6.979,4.649,16.269,3.729,22.2-2.2l4.8-4.84c5.356-5.355,13.537-6.682,20.312-3.296  l7.528,3.768c7.605,3.795,16.835,1.614,21.936-5.184l6.4-8.504c5.101-6.798,14.331-8.979,21.936-5.184l3.136,1.6  c8.689,4.339,19.251,0.82,23.6-7.864l0.272-0.528c4.346-8.687,14.909-12.21,23.6-7.872l11.048,5.528l-2.296-48.16  c-0.31-6.507-3.522-12.532-8.752-16.416c-8.689-4.339-19.251-0.82-23.6,7.864l-0.272,0.528c-4.346,8.687-14.909,12.21-23.6,7.872  l-3.136-1.6c-7.603-3.797-16.832-1.619-21.936,5.176l-6.4,8.512c-5.104,6.795-14.333,8.973-21.936,5.176l-7.528-3.76  c-6.775-3.386-14.956-2.059-20.312,3.296l-4.8,4.8c-5.931,5.929-15.221,6.849-22.2,2.2c-6.979-4.649-16.269-3.729-22.2,2.2l-3.6,3.6  c-5.931,5.928-15.221,6.849-22.2,2.2l-2.24-1.496c-5.911-3.939-13.609-3.939-19.52,0l-2.24,1.496  c-6.979,4.649-16.269,3.729-22.2-2.2l-3.6-3.6c-5.931-5.928-15.221-6.849-22.2-2.2s-16.269,3.729-22.2-2.2l-4.8-4.8  c-5.356-5.355-13.537-6.682-20.312-3.296l-7.528,3.76c-7.603,3.797-16.832,1.619-21.936-5.176l-6.4-8.512  c-5.104-6.795-14.333-8.973-21.936-5.176l-3.136,1.6c-8.691,4.338-19.254,0.815-23.6-7.872l-0.272-0.528  c-4.349-8.684-14.911-12.203-23.6-7.864c-5.289,3.927-8.789,9.806-9.72,16.328L4.52,130.821l11.736-5.872  C24.943,120.602,35.509,124.115,39.864,132.797L39.864,132.797z" fill="#f6f6e7"/><g><path d="M204,295.997c-6.627,0-12-5.373-12-12s5.373-12,12-12s12,5.373,12,12S210.627,295.997,204,295.997z" fill="#9b1e5a"/><path d="M260,295.997c-6.627,0-12-5.373-12-12s5.373-12,12-12c6.627,0,12,5.373,12,12   S266.627,295.997,260,295.997z" fill="#9b1e5a"/><path d="M316,239.997c-6.627,0-12-5.373-12-12s5.373-12,12-12s12,5.373,12,12S322.627,239.997,316,239.997   L316,239.997z" fill="#9b1e5a"/><path d="M428,207.997c-6.627,0-12-5.373-12-12s5.373-12,12-12s12,5.373,12,12S434.627,207.997,428,207.997   L428,207.997z" fill="#9b1e5a"/><path d="M36,207.997c-6.627,0-12-5.373-12-12s5.373-12,12-12s12,5.373,12,12S42.627,207.997,36,207.997   L36,207.997z" fill="#9b1e5a"/><path d="M148,239.997c-6.627,0-12-5.373-12-12s5.373-12,12-12s12,5.373,12,12S154.627,239.997,148,239.997   L148,239.997z" fill="#9b1e5a"/><path d="M315.064,143.741c-10.443-10.434-26.393-13.012-39.592-6.4L232,159.053l-43.464-21.736   c-16.944-8.485-37.559-1.628-46.044,15.316s-1.628,37.559,15.316,46.044c9.67,4.843,21.058,4.843,30.728,0l17.192-8.592   c-9.055,16.976-13.771,35.928-13.728,55.168v2.744h16v-2.744c-0.07-23.986,8.443-47.207,24-65.464   c15.556,18.255,24.068,41.472,24,65.456v2.752h16v-2.752c0.048-19.251-4.668-38.214-13.728-55.2l17.2,8.6   c16.95,8.463,37.552,1.583,46.015-15.368c6.59-13.198,4.003-29.132-6.423-39.568L315.064,143.741z M181.384,184.365   c-9.04,4.525-20.036,0.865-24.561-8.175s-0.865-20.036,8.175-24.561c5.157-2.581,11.229-2.581,16.386,0l32.736,16.368   L181.384,184.365z M303.784,180.933c-5.567,5.579-14.082,6.962-21.128,3.432l-32.768-16.368l32.736-16.368   c9.032-4.531,20.027-0.882,24.558,8.149c3.538,7.053,2.156,15.58-3.43,21.155L303.784,180.933z" fill="#9b1e5a"/></g></g><g transform="matrix(0.12931033968925476 0 0 0.12931033968925476 183 280)" id="L1_9"><path d="M364,176l-48-16v-32c0-70.696-39.4-128-88-128s-88,57.304-88,128v32H84v-8H20v160h96v152h224v-24  l104-104L364,176z M340,264l29.336,58.664L340,352V264z" fill="#5a6473"/><path d="M140,416c22.091,0,40-17.909,40-40h96c0,22.091,17.909,40,40,40v48H140V416z" fill="#efefef"/><path d="M260,165.672h16V280h-16V165.672z" fill="#fcd797"/><path d="M260,296h16v16h-16V296z" fill="#efefef"/><path d="M180,165.672h16V280h-16V165.672z" fill="#fcd797"/><g><path d="M180,296h16v16h-16V296z" fill="#efefef"/><path d="M28,104h48v48H28V104z" fill="#efefef"/></g><path d="M189.176,200.328L228,264l38.824-63.672c11.217-17.631,17.175-38.095,17.176-58.992  C284,89.784,258.928,48,228,48s-56,41.784-56,93.336C172.001,162.233,177.959,182.697,189.176,200.328z" fill="#128daa"/></g></defs><g fi:class="KUsePattern"><pattern id="pattern_L1_0" width="350" height="350" patternUnits="userSpaceOnUse"><use xlink:href="#L1_0" x="-350" y="-350"/><use xlink:href="#L1_0" x="0" y="-350"/><use xlink:href="#L1_0" x="350" y="-350"/><use xlink:href="#L1_0" x="-350" y="0"/><use xlink:href="#L1_0" x="0" y="0"/><use xlink:href="#L1_0" x="350" y="0"/><use xlink:href="#L1_0" x="-350" y="350"/><use xlink:href="#L1_0" x="0" y="350"/><use xlink:href="#L1_0" x="350" y="350"/></pattern><rect x="0" y="0" width="100%" height="100%" fill="url(#pattern_L1_0)"/></g><g fi:class="KUsePattern"><pattern id="pattern_L1_1" width="350" height="350" patternUnits="userSpaceOnUse"><use xlink:href="#L1_1" x="-350" y="-350"/><use xlink:href="#L1_1" x="0" y="-350"/><use xlink:href="#L1_1" x="350" y="-350"/><use xlink:href="#L1_1" x="-350" y="0"/><use xlink:href="#L1_1" x="0" y="0"/><use xlink:href="#L1_1" x="350" y="0"/><use xlink:href="#L1_1" x="-350" y="350"/><use xlink:href="#L1_1" x="0" y="350"/><use xlink:href="#L1_1" x="350" y="350"/></pattern><rect x="0" y="0" width="100%" height="100%" fill="url(#pattern_L1_1)"/></g><g fi:class="KUsePattern"><pattern id="pattern_L1_2" width="350" height="350" patternUnits="userSpaceOnUse"><use xlink:href="#L1_2" x="-350" y="-350"/><use xlink:href="#L1_2" x="0" y="-350"/><use xlink:href="#L1_2" x="350" y="-350"/><use xlink:href="#L1_2" x="-350" y="0"/><use xlink:href="#L1_2" x="0" y="0"/><use xlink:href="#L1_2" x="350" y="0"/><use xlink:href="#L1_2" x="-350" y="350"/><use xlink:href="#L1_2" x="0" y="350"/><use xlink:href="#L1_2" x="350" y="350"/></pattern><rect x="0" y="0" width="100%" height="100%" fill="url(#pattern_L1_2)"/></g><g fi:class="KUsePattern"><pattern id="pattern_L1_3" width="350" height="350" patternUnits="userSpaceOnUse"><use xlink:href="#L1_3" x="-350" y="-350"/><use xlink:href="#L1_3" x="0" y="-350"/><use xlink:href="#L1_3" x="350" y="-350"/><use xlink:href="#L1_3" x="-350" y="0"/><use xlink:href="#L1_3" x="0" y="0"/><use xlink:href="#L1_3" x="350" y="0"/><use xlink:href="#L1_3" x="-350" y="350"/><use xlink:href="#L1_3" x="0" y="350"/><use xlink:href="#L1_3" x="350" y="350"/></pattern><rect x="0" y="0" width="100%" height="100%" fill="url(#pattern_L1_3)"/></g><g fi:class="KUsePattern"><pattern id="pattern_L1_4" width="350" height="350" patternUnits="userSpaceOnUse"><use xlink:href="#L1_4" x="-350" y="-350"/><use xlink:href="#L1_4" x="0" y="-350"/><use xlink:href="#L1_4" x="350" y="-350"/><use xlink:href="#L1_4" x="-350" y="0"/><use xlink:href="#L1_4" x="0" y="0"/><use xlink:href="#L1_4" x="350" y="0"/><use xlink:href="#L1_4" x="-350" y="350"/><use xlink:href="#L1_4" x="0" y="350"/><use xlink:href="#L1_4" x="350" y="350"/></pattern><rect x="0" y="0" width="100%" height="100%" fill="url(#pattern_L1_4)"/></g><g fi:class="KUsePattern"><pattern id="pattern_L1_5" width="350" height="350" patternUnits="userSpaceOnUse"><use xlink:href="#L1_5" x="-350" y="-350"/><use xlink:href="#L1_5" x="0" y="-350"/><use xlink:href="#L1_5" x="350" y="-350"/><use xlink:href="#L1_5" x="-350" y="0"/><use xlink:href="#L1_5" x="0" y="0"/><use xlink:href="#L1_5" x="350" y="0"/><use xlink:href="#L1_5" x="-350" y="350"/><use xlink:href="#L1_5" x="0" y="350"/><use xlink:href="#L1_5" x="350" y="350"/></pattern><rect x="0" y="0" width="100%" height="100%" fill="url(#pattern_L1_5)"/></g><g fi:class="KUsePattern"><pattern id="pattern_L1_6" width="350" height="350" patternUnits="userSpaceOnUse"><use xlink:href="#L1_6" x="-350" y="-350"/><use xlink:href="#L1_6" x="0" y="-350"/><use xlink:href="#L1_6" x="350" y="-350"/><use xlink:href="#L1_6" x="-350" y="0"/><use xlink:href="#L1_6" x="0" y="0"/><use xlink:href="#L1_6" x="350" y="0"/><use xlink:href="#L1_6" x="-350" y="350"/><use xlink:href="#L1_6" x="0" y="350"/><use xlink:href="#L1_6" x="350" y="350"/></pattern><rect x="0" y="0" width="100%" height="100%" fill="url(#pattern_L1_6)"/></g><g fi:class="KUsePattern"><pattern id="pattern_L1_7" width="350" height="350" patternUnits="userSpaceOnUse"><use xlink:href="#L1_7" x="-350" y="-350"/><use xlink:href="#L1_7" x="0" y="-350"/><use xlink:href="#L1_7" x="350" y="-350"/><use xlink:href="#L1_7" x="-350" y="0"/><use xlink:href="#L1_7" x="0" y="0"/><use xlink:href="#L1_7" x="350" y="0"/><use xlink:href="#L1_7" x="-350" y="350"/><use xlink:href="#L1_7" x="0" y="350"/><use xlink:href="#L1_7" x="350" y="350"/></pattern><rect x="0" y="0" width="100%" height="100%" fill="url(#pattern_L1_7)"/></g><g fi:class="KUsePattern"><pattern id="pattern_L1_8" width="350" height="350" patternUnits="userSpaceOnUse"><use xlink:href="#L1_8" x="-350" y="-350"/><use xlink:href="#L1_8" x="0" y="-350"/><use xlink:href="#L1_8" x="350" y="-350"/><use xlink:href="#L1_8" x="-350" y="0"/><use xlink:href="#L1_8" x="0" y="0"/><use xlink:href="#L1_8" x="350" y="0"/><use xlink:href="#L1_8" x="-350" y="350"/><use xlink:href="#L1_8" x="0" y="350"/><use xlink:href="#L1_8" x="350" y="350"/></pattern><rect x="0" y="0" width="100%" height="100%" fill="url(#pattern_L1_8)"/></g><g fi:class="KUsePattern"><pattern id="pattern_L1_9" width="350" height="350" patternUnits="userSpaceOnUse"><use xlink:href="#L1_9" x="-350" y="-350"/><use xlink:href="#L1_9" x="0" y="-350"/><use xlink:href="#L1_9" x="350" y="-350"/><use xlink:href="#L1_9" x="-350" y="0"/><use xlink:href="#L1_9" x="0" y="0"/><use xlink:href="#L1_9" x="350" y="0"/><use xlink:href="#L1_9" x="-350" y="350"/><use xlink:href="#L1_9" x="0" y="350"/><use xlink:href="#L1_9" x="350" y="350"/></pattern><rect x="0" y="0" width="100%" height="100%" fill="url(#pattern_L1_9)"/></g></svg>